<svg width="212" height="396" viewBox="0 0 212 396" fill="none" xmlns="http://www.w3.org/2000/svg">
<path d="M53.8312 146.615L68.9795 332.182C68.9962 332.53 69.1301 332.861 69.3593 333.123C69.5885 333.385 69.8995 333.562 70.2419 333.625V333.625C70.5317 333.664 70.8265 333.639 71.1054 333.551C71.3844 333.463 71.6405 333.315 71.8557 333.117C72.0709 332.919 72.2398 332.676 72.3505 332.405C72.4612 332.135 72.5109 331.843 72.4961 331.551L57.7986 145.984C57.7623 145.582 57.5742 145.209 57.2727 144.941C56.9712 144.673 56.5789 144.53 56.1756 144.541H55.7247C55.4604 144.541 55.1989 144.595 54.9569 144.702C54.715 144.809 54.498 144.964 54.3197 145.16C54.1415 145.355 54.006 145.585 53.9218 145.836C53.8377 146.086 53.8069 146.352 53.8312 146.615V146.615Z" fill="#FFC21E"/>
<path d="M6.94321 153.016C9.19742 159.238 11.5418 165.099 13.8862 170.599C23.6244 193.682 33.543 210.995 41.6582 223.167C49.6832 235.16 55.8146 242.103 58.2492 244.627C58.5804 245.016 58.9422 245.378 59.3312 245.709C59.3312 245.709 60.8641 246.25 63.6593 247.152C72.6804 249.942 81.9057 252.022 91.2509 253.374C93.5953 253.734 96.0299 254.005 98.3743 254.185C107.121 254.907 116.228 254.817 124.523 252.923C127.659 252.228 130.712 251.201 133.63 249.857C133.72 249.857 133.811 249.767 133.901 249.767C140.624 243.566 147.005 237.004 153.016 230.11C168.616 212.527 190.076 184.485 202.609 151.393C204.142 147.426 205.404 143.368 206.577 139.22C220.643 89.2668 209.372 26.8701 141.565 6.31164C133.895 4.01721 126.056 2.32887 118.121 1.2622C116.137 0.99169 114.154 0.721184 112.26 0.631015C108.155 0.231661 104.032 0.0510678 99.9071 0.0900033C88.6804 0.127768 77.5451 2.11076 66.9956 5.95097C9.19743 27.0504 -11.9922 101.169 6.94321 153.016Z" fill="#FFD76F"/>
<path d="M13.8861 170.599C35.9775 223.077 59.241 245.71 59.241 245.71C59.241 245.71 60.7739 246.251 63.5691 247.152C72.5902 249.942 81.8155 252.022 91.1607 253.374C93.5051 253.735 95.9397 254.005 98.284 254.185C107.03 254.907 116.137 254.817 124.433 252.923C127.652 252.171 130.792 251.114 133.81 249.767C133.81 249.767 181.059 207.929 202.519 151.393C204.052 147.426 205.314 143.368 206.486 139.22C188.723 155.09 154.369 176.73 98.1939 178.083C55.2736 178.985 29.305 174.927 13.8861 170.599Z" fill="#FDD15C"/>
<path d="M98.3755 254.096C107.122 254.817 116.229 254.727 124.524 252.833C140.635 225.628 153.21 196.479 161.944 166.091C164.83 155.902 167.355 145.262 169.338 134.171C179.978 73.5781 158.969 30.2972 141.657 6.31228C133.986 4.01785 126.147 2.3295 118.213 1.26283C116.229 0.992328 114.245 0.721822 112.352 0.631653C119.836 11.4519 137.058 43.4618 133 105.047C131.467 128.311 126.959 153.017 121.459 176.28C115.16 202.612 107.454 228.588 98.3755 254.096V254.096Z" fill="white"/>
<path d="M32.5533 117.76C33.0962 137.203 35.4508 156.553 39.5865 175.558C44.8871 200.225 52.9636 224.213 63.6615 247.062V247.062C72.6826 249.852 81.9079 251.932 91.2531 253.284C83.2551 228.763 77.5205 203.56 74.1211 177.993C71.5471 158.539 70.7624 138.89 71.7767 119.293C74.2096 78.1951 83.759 37.8314 99.9995 0C88.7728 0.0377466 77.6375 2.02074 67.0879 5.86096C49.5952 30.6574 31.1106 68.6184 32.5533 117.76Z" fill="white"/>
<path d="M98.3727 254.096C107.119 254.817 116.226 254.727 124.522 252.833C140.632 225.628 153.207 196.479 161.942 166.091C148.917 171.043 135.361 174.462 121.546 176.28C115.18 202.604 107.445 228.578 98.3727 254.096V254.096Z" fill="#FAFAFA"/>
<path d="M39.5824 175.559C44.8831 200.226 52.9595 224.213 63.6575 247.063V247.063C72.6786 249.852 81.9038 251.933 91.2491 253.285C83.2511 228.764 77.5164 203.561 74.117 177.994C62.5691 177.827 51.0395 177.014 39.5824 175.559V175.559Z" fill="#FAFAFA"/>
<path d="M41.663 223.077C49.688 235.069 55.8194 242.012 58.254 244.537C69.5684 239.543 81.8736 237.2 94.2313 237.684C111.003 238.315 125.339 244.897 133.545 249.676C133.635 249.676 133.725 249.586 133.815 249.586C140.539 243.385 146.92 236.823 152.931 229.929C145.177 222.806 126.872 209.642 95.8543 208.379C68.8037 207.387 51.0405 216.404 41.663 223.077Z" fill="#FFD199"/>
<path d="M133.633 249.767C133.633 249.767 118.755 239.848 96.3031 237.774C73.8511 235.7 58.2519 244.627 58.2519 244.627C58.2519 244.627 58.0715 249.496 95.5817 254.275C123.895 257.792 133.633 249.767 133.633 249.767Z" fill="#FEC272"/>
<path d="M199.458 155.631L105.953 345.165C105.778 345.525 105.727 345.933 105.808 346.324C105.89 346.716 106.1 347.07 106.404 347.329L106.675 347.6C106.878 347.789 107.123 347.927 107.39 348.003C107.656 348.08 107.937 348.092 108.21 348.039C108.482 347.986 108.738 347.87 108.957 347.7C109.176 347.529 109.352 347.31 109.47 347.059L203.245 157.614C203.457 157.207 203.5 156.733 203.365 156.294C203.23 155.856 202.928 155.488 202.524 155.27L201.893 154.909C201.689 154.784 201.461 154.702 201.223 154.671C200.986 154.639 200.744 154.658 200.514 154.726C200.285 154.794 200.072 154.91 199.89 155.066C199.708 155.222 199.561 155.414 199.458 155.631V155.631Z" fill="#FFC21E"/>
<path d="M142.83 151.032L91.5242 339.395C91.4374 339.782 91.4682 340.186 91.6128 340.556C91.7574 340.925 92.0092 341.243 92.3357 341.469L92.6062 341.739C93.6882 342.551 95.0407 342.28 95.3113 341.108L146.978 152.836C147.075 152.37 147.012 151.885 146.799 151.46C146.586 151.035 146.236 150.693 145.806 150.491L145.175 150.131C144.966 150.009 144.733 149.936 144.493 149.917C144.253 149.897 144.011 149.932 143.786 150.019C143.561 150.105 143.358 150.241 143.193 150.417C143.027 150.592 142.903 150.803 142.83 151.032Z" fill="#FFC21E"/>
<path d="M6.58485 144.27L67.4487 337.05C67.5807 337.436 67.5716 337.856 67.423 338.236C67.2744 338.616 66.996 338.93 66.6372 339.124L65.5552 339.665C65.3294 339.795 65.0772 339.873 64.8174 339.893C64.5575 339.912 64.2966 339.873 64.054 339.777C63.8114 339.682 63.5935 339.533 63.4163 339.342C63.2391 339.151 63.1072 338.922 63.0304 338.673L1.71574 145.983C1.58678 145.563 1.61659 145.111 1.79948 144.712C1.98236 144.313 2.30557 143.995 2.70759 143.819L4.15029 143.188C4.38095 143.096 4.62751 143.052 4.87554 143.057C5.12357 143.062 5.36809 143.117 5.59479 143.217C5.82149 143.318 6.02582 143.463 6.19582 143.644C6.36582 143.825 6.49808 144.037 6.58485 144.27V144.27Z" fill="#FFC21E"/>
<path d="M141.027 284.752C141.106 284.424 141.107 284.082 141.028 283.754C140.948 283.426 140.792 283.121 140.572 282.866C140.351 282.61 140.073 282.41 139.76 282.284C139.447 282.157 139.109 282.107 138.773 282.138C131.108 282.498 109.558 283.22 86.9255 279.432C72.465 277.127 58.1836 273.813 44.1856 269.514C43.8514 269.406 43.4967 269.377 43.1493 269.428C42.8019 269.48 42.4712 269.612 42.1831 269.812C41.8949 270.013 41.6571 270.278 41.4883 270.586C41.3195 270.894 41.2243 271.237 41.21 271.588V271.588C41.2179 272.05 41.3698 272.498 41.6446 272.87C41.9194 273.242 42.3033 273.519 42.7429 273.662C57.3135 278.103 72.1642 281.567 87.196 284.031C108.746 287.458 132.371 286.916 138.953 286.646C139.443 286.644 139.918 286.472 140.296 286.16C140.674 285.848 140.932 285.414 141.027 284.933V284.752Z" fill="#FFC21E"/>
<path d="M200.81 158.877L3.97212 147.425C2.92396 147.365 1.93598 146.916 1.202 146.165C0.468012 145.415 0.0409979 144.417 0.00470447 143.368V143.007C-0.0231159 142.423 0.072842 141.841 0.286275 141.297C0.499708 140.753 0.825784 140.261 1.24308 139.852C1.66037 139.443 2.15944 139.127 2.70749 138.925C3.25555 138.723 3.84017 138.639 4.42296 138.679L201.261 150.581C201.871 150.621 202.465 150.792 203.002 151.082C203.54 151.373 204.009 151.775 204.377 152.263C204.745 152.751 205.003 153.312 205.135 153.909C205.266 154.505 205.267 155.123 205.138 155.721V155.721C204.91 156.676 204.349 157.518 203.556 158.096C202.763 158.675 201.789 158.951 200.81 158.877Z" fill="#FFC21E"/>
<path d="M53.4072 300.353C53.4072 300.353 39.3723 306.19 32.7521 311.134C26.1462 316.177 32.466 326.07 38.806 323.946C43.3423 322.385 48.5734 310.695 50.5172 307.033C51.6904 304.903 52.6581 302.666 53.4072 300.353V300.353Z" fill="#835102"/>
<path d="M37.6831 368.989L96.5431 382.376L104.97 384.315C109.32 385.293 113.87 384.831 117.934 382.997C121.999 381.164 125.357 378.059 127.503 374.151C129.371 370.666 130.203 366.719 129.901 362.777L126.326 314.155C126.18 312.353 125.425 310.655 124.185 309.339C122.945 308.024 121.294 307.17 119.503 306.918L103.879 304.648L60.0515 298.284C58.2751 298.028 56.4647 298.387 54.9198 299.3C53.3748 300.213 52.1882 301.627 51.5562 303.306L51.3504 303.932L30.866 356.389C30.8803 356.487 30.7974 356.598 30.8117 356.695C30.3841 357.952 30.2255 359.285 30.3461 360.608C30.4666 361.93 30.8637 363.212 31.5115 364.371C32.1594 365.531 33.0435 366.541 34.1067 367.336C35.1698 368.132 36.3883 368.695 37.6831 368.989Z" fill="#835102"/>
<path d="M96.5407 382.376L104.967 384.314C109.317 385.293 113.868 384.83 117.932 382.997C121.996 381.164 125.355 378.059 127.5 374.15C129.369 370.665 130.201 366.719 129.899 362.777L126.692 319.363L126.324 314.155L126.209 313.378C125.924 311.727 125.119 310.211 123.913 309.049C122.707 307.887 121.161 307.14 119.501 306.917L103.877 304.648C103.897 306.134 103.834 307.732 103.785 309.427C103.725 311.719 103.694 314.206 103.677 316.79C103.419 331.92 103.041 351.634 102.941 364.457C103.013 368.193 102.416 371.912 101.18 375.439C100.345 378.155 98.7319 380.567 96.5407 382.376V382.376Z" fill="#995F04"/>
<path d="M103.79 316.873C105.969 319.531 110.222 323.473 116.848 323.293C120.534 323.315 124.092 321.94 126.806 319.446L126.438 314.238L126.323 313.461C126.038 311.81 125.233 310.294 124.027 309.132C122.82 307.97 121.275 307.224 119.615 307L103.991 304.731C104.011 306.217 103.948 307.815 103.899 309.51C103.922 311.691 103.793 314.192 103.79 316.873Z" fill="#B57106"/>
<path d="M71.9202 323.644C91.1286 325.983 103.774 316.776 103.774 316.776L103.96 304.536L60.1326 298.173C58.3563 297.917 56.5458 298.275 55.0009 299.188C53.456 300.101 52.2693 301.515 51.6373 303.195L51.4315 303.821L51.3943 304.918C51.3114 305.03 52.7117 321.306 71.9202 323.644Z" fill="#995F04"/>
<path d="M103.975 304.634L103.855 309.219C103.855 309.219 91.8412 323.396 72.7271 320.349C53.5301 317.413 53.862 300.088 53.862 300.088C55.0099 299.278 56.3131 298.715 57.6894 298.433C59.7039 298.348 61.7216 298.484 63.7063 298.839L103.975 304.634Z" fill="#FFC21E"/>
<path d="M103.881 309.413C104.498 310.911 107.557 318.206 114.8 319.524C121.946 320.856 125.602 314.659 126.305 313.364C126.02 311.713 125.215 310.197 124.009 309.035C122.802 307.874 121.257 307.127 119.597 306.904L103.973 304.634C103.993 306.12 103.93 307.718 103.881 309.413Z" fill="#FFC21E"/>
<path d="M37.682 368.989L96.542 382.376L104.969 384.314C109.319 385.293 113.869 384.83 117.933 382.997C121.998 381.164 125.356 378.059 127.502 374.15C117.008 376.388 108.422 376.062 99.7779 375.347C90.3137 374.455 59.3773 367.983 44.325 362.849C39.5931 361.265 35.0328 359.208 30.7134 356.709C30.307 357.972 30.1672 359.306 30.3029 360.627C30.4386 361.947 30.8469 363.224 31.5019 364.379C32.1569 365.533 33.0444 366.539 34.1082 367.332C35.172 368.126 36.3889 368.69 37.682 368.989V368.989Z" fill="#995F04"/>
<path d="M96.5402 382.376L104.967 384.315C109.317 385.293 113.867 384.831 117.931 382.997C121.996 381.164 125.354 378.059 127.5 374.15C117.59 376.303 109.42 376.114 101.18 375.439C100.344 378.155 98.7314 380.567 96.5402 382.376V382.376Z" fill="#B57106"/>
<path d="M92.5194 265.365C101.176 266.447 107.668 258.783 102.348 252.561C97.118 246.339 96.036 240.839 96.036 240.839C96.036 240.839 85.3961 246.79 84.0436 253.373C83.0517 258.422 83.7731 264.283 92.5194 265.365Z" fill="#FEC272"/>
<path d="M93.1511 263.111C96.5775 263.291 100.184 261.578 99.5531 257.52C98.9219 253.463 95.3151 251.93 94.5938 249.225C93.8724 246.52 94.5938 245.257 94.5938 245.257C94.5938 245.257 88.282 249.766 87.5606 255.717C86.9294 261.668 90.8067 263.021 93.1511 263.111Z" fill="#FF3210"/>
<path d="M105.685 270.234L106.136 266.086C106.19 265.542 106.047 264.997 105.732 264.55C105.418 264.103 104.953 263.784 104.422 263.652C100.62 262.846 96.7616 262.334 92.8809 262.119C89.4924 261.836 86.0906 261.746 82.6918 261.848C82.1523 261.862 81.6358 262.07 81.2379 262.435C80.8401 262.799 80.5878 263.296 80.5278 263.832L79.9868 267.89C79.9436 268.395 80.0594 268.902 80.3181 269.338C80.5767 269.775 80.9653 270.119 81.4295 270.324C83.323 271.046 87.1101 272.037 93.3317 272.398C96.7839 272.642 100.249 272.642 103.701 272.398C104.218 272.294 104.689 272.028 105.045 271.639C105.402 271.25 105.626 270.758 105.685 270.234V270.234Z" fill="#FFC21E"/>
</svg>
