<svg width="316" height="147" viewBox="0 0 316 147" fill="none" xmlns="http://www.w3.org/2000/svg">
<path d="M276.445 47.6156C275.774 34.7615 270.21 22.6562 260.9 13.7965C251.591 4.93673 239.247 -0.00160066 226.414 3.89181e-07H100.021C87.3817 0.00704325 75.2124 4.80489 65.9516 13.4319C56.6908 22.059 51.0226 33.8779 50.0831 46.5199C43.5052 46.5199 36.9918 47.8196 30.9147 50.3448C24.8377 52.87 19.3161 56.5712 14.6653 61.237C10.0145 65.9029 6.32566 71.442 3.80936 77.538C1.29306 83.6339 -0.00136533 90.1673 1.08066e-06 96.7652C9.38741e-07 103.363 1.29578 109.896 3.81334 115.992C6.3309 122.087 10.0209 127.625 14.6727 132.29C19.3244 136.955 24.8468 140.655 30.9243 143.179C37.0019 145.703 43.5156 147.001 50.0935 147H265.907C272.484 147.001 278.998 145.703 285.076 143.179C291.153 140.655 296.676 136.955 301.327 132.29C305.979 127.625 309.669 122.087 312.187 115.992C314.704 109.896 316 103.363 316 96.7652C316.003 85.2769 312.081 74.1345 304.887 65.1949C297.693 56.2552 287.662 50.0582 276.466 47.6365L276.445 47.6156Z" fill="white" fill-opacity="0.8"/>
</svg>
