<svg width="173" height="97" viewBox="0 0 173 97" fill="none" xmlns="http://www.w3.org/2000/svg">
<path d="M173.717 34.6024C173.75 34.1953 173.77 33.7882 173.79 33.3744C173.81 32.9606 173.79 32.5469 173.79 32.1265C173.79 23.606 170.418 15.4345 164.415 9.40964C158.412 3.38476 150.271 0 141.782 0H32.0013C23.5145 0.00530547 15.3769 3.39199 9.37644 9.41591C3.37599 15.4398 0.00352278 23.6082 0 32.1265C0.00176275 40.6481 3.37527 48.8203 9.3788 54.846C15.3823 60.8718 23.5244 64.2578 32.0146 64.2596H64.7141C64.7141 64.3597 64.7141 64.4664 64.7141 64.5665C64.7141 64.6666 64.7141 64.7668 64.7141 64.8735C64.7141 73.394 68.0863 81.5655 74.089 87.5904C80.0917 93.6152 88.233 97 96.722 97H162.985C167.189 97.0009 171.352 96.1705 175.236 94.5564C179.12 92.9423 182.65 90.576 185.623 87.5927C188.596 84.6094 190.954 81.0675 192.563 77.1693C194.172 73.2711 195 69.093 195 64.8735C194.997 58.2415 192.951 51.7725 189.142 46.3533C185.333 40.934 179.947 36.8296 173.723 34.6024H173.717Z" fill="white" fill-opacity="0.8"/>
</svg>
